Coordinates
version=1
nRows=16
nColumns=22
inDegrees=yes

Units are S.I. units (second, meters, Newtons, ...)
If the header above contains a line with 'inDegrees', this indicates whether rotational values are in degrees (yes) or radians (no).

endheader
time	pelvis_tilt	pelvis_list	pelvis_rotation	pelvis_tx	pelvis_ty	pelvis_tz	hip_flexion_r	hip_adduction_r	hip_rotation_r	knee_angle_r	ankle_angle_r	subtalar_angle_r	hip_flexion_l	hip_adduction_l	hip_rotation_l	knee_angle_l	ankle_angle_l	subtalar_angle_l	lumbar_extension	lumbar_bending	lumbar_rotation
      0.01000000	     -1.05797140	      3.45113816	    176.71707403	      0.18546301	      1.02011051	      0.82045597	      6.22275899	      5.34342302	      9.03486652	    -17.18778012	      8.66779197	     -3.97000433	      3.26291532	     -0.58154508	     -8.58328414	    -11.65924610	     10.76819866	     -2.38090500	    -10.89337526	      2.26124341	      2.91957050
      0.02000000	     -1.06089866	      3.45593695	    176.72603307	      0.18551299	      1.02011397	      0.82041783	      6.21611000	      5.34834490	      9.01576951	    -17.17524818	      8.66460249	     -3.97288957	      3.27374714	     -0.59189812	     -8.59074841	    -11.67814861	     10.78308423	     -2.37760973	    -10.89023610	      2.26097035	      2.95511832
      0.03000000	     -1.06325713	      3.46347923	    176.74332301	      0.18556792	      1.02011966	      0.82038108	      6.20823542	      5.35667971	      8.99403027	    -17.15953259	      8.65926685	     -3.97688059	      3.28587335	     -0.60522113	     -8.58896791	    -11.69588398	     10.78786755	     -2.37408861	    -10.88462351	      2.26536574	      2.98067178
      0.04000000	     -1.06439165	      3.48397294	    176.77991693	      0.18562786	      1.02012337	      0.82036928	      6.19874749	      5.37718378	      8.95221182	    -17.13897020	      8.63610966	     -3.99212496	      3.30491134	     -0.63252919	     -8.56667595	    -11.72149134	     10.79804550	     -2.36415436	    -10.87686933	      2.29024169	      2.98549286
      0.05000000	     -1.06623450	      3.48340744	    176.80340555	      0.18568012	      1.02013178	      0.82034233	      6.18577476	      5.37620775	      8.93435320	    -17.11372701	      8.63588157	     -3.99568858	      3.31502560	     -0.63574774	     -8.55490061	    -11.73176333	     10.79512622	     -2.36258765	    -10.86695315	      2.28666540	      3.01676252
      0.06000000	     -1.06877647	      3.48679303	    176.83331067	      0.18572673	      1.02014424	      0.82032757	      6.17021280	      5.37831866	      8.90954855	    -17.08513637	      8.63227109	     -4.00120037	      3.32393510	     -0.64267891	     -8.53595487	    -11.74160344	     10.78914406	     -2.36064465	    -10.85577945	      2.29095303	      3.04778288
      0.07000000	     -1.07055728	      3.49198874	    176.86812026	      0.18577192	      1.02015661	      0.82032670	      6.15208336	      5.38106526	      8.88109914	    -17.05098931	      8.62613899	     -4.00804454	      3.33206987	     -0.65076204	     -8.51162438	    -11.74826296	     10.78228152	     -2.35889371	    -10.84477408	      2.29844684	      3.07810649
      0.08000000	     -1.07268880	      3.49796484	    176.90745979	      0.18581365	      1.02017235	      0.82033756	      6.13144824	      5.38406008	      8.85051159	    -17.01344652	      8.61782476	     -4.01607691	      3.33839348	     -0.65851273	     -8.48224357	    -11.75122476	     10.77482953	     -2.35763604	    -10.83300024	      2.30889152	      3.10617789
      0.09000000	     -1.08333960	      3.51795576	    176.97389337	      0.18584860	      1.02020437	      0.82040298	      6.09631891	      5.39708706	      8.79221415	    -16.96812467	      8.58503317	     -4.04245066	      3.33218473	     -0.67629550	     -8.40260603	    -11.74540117	     10.76299746	     -2.35770311	    -10.83135278	      2.34299326	      3.09387750
      0.10000000	     -1.08405498	      3.51517801	    177.00800199	      0.18588891	      1.02021454	      0.82041619	      6.07671022	      5.39032602	      8.77023677	    -16.93017622	      8.58741902	     -4.04655606	      3.33952152	     -0.67478342	     -8.39062709	    -11.74825144	     10.76036683	     -2.35885866	    -10.81936668	      2.34164303	      3.13236621
      0.11000000	     -1.08378631	      3.51712728	    177.04932452	      0.18592569	      1.02022508	      0.82044707	      6.05375913	      5.38671426	      8.74145735	    -16.88428255	      8.58702449	     -4.05119250	      3.34645262	     -0.67670567	     -8.36359504	    -11.74740131	     10.75348440	     -2.35944759	    -10.80584557	      2.34790223	      3.16826632
      0.12000000	     -1.09354890	      3.53506505	    177.12880858	      0.18596436	      1.02025439	      0.82054531	      6.01388272	      5.39447847	      8.67617314	    -16.82795656	      8.56262902	     -4.06871187	      3.34113481	     -0.68973588	     -8.26453374	    -11.73759309	     10.73950666	     -2.36234197	    -10.80562995	      2.38160242	      3.14711942
      0.13000000	     -1.10101981	      3.53968836	    177.19095381	      0.18600112	      1.02027333	      0.82062420	      5.97871331	      5.38913930	      8.62467135	    -16.77536132	      8.55657044	     -4.08289976	      3.34391889	     -0.69111955	     -8.20943123	    -11.74104641	     10.73572315	     -2.36688033	    -10.80211779	      2.39633871	      3.15344551
      0.14000000	     -1.10266264	      3.54675321	    177.25162677	      0.18605576	      1.02028296	      0.82069174	      5.94952020	      5.38820635	      8.58096575	    -16.71991042	      8.54958139	     -4.09473105	      3.35332412	     -0.69618618	     -8.15163339	    -11.74288421	     10.72994574	     -2.36819081	    -10.79712533	      2.41153771	      3.16060748
      0.15000000	     -1.10480950	      3.55326806	    177.31508288	      0.18610407	      1.02029195	      0.82076337	      5.91961391	      5.38658562	      8.53297430	    -16.66531596	      8.54195986	     -4.10801966	      3.36407062	     -0.70065417	     -8.09119668	    -11.74885745	     10.72766736	     -2.36748144	    -10.79116167	      2.42651153	      3.16118309
      0.16000000	     -1.10626730	      3.55882308	    177.37542513	      0.18615231	      1.02029925	      0.82083726	      5.89087280	      5.38395535	      8.48866730	    -16.61128545	      8.53567219	     -4.12275610	      3.37492312	     -0.70348388	     -8.03201553	    -11.75425252	     10.72611991	     -2.36419399	    -10.78583307	      2.44130709	      3.16231278
